#N canvas 257 349 471 382 10;
#X obj 66 261 gemscope~;
#X msg 53 104 \; pd dsp 1;
#X obj 209 215 sig~;
#X obj 211 182 / 127;
#X obj 263 129 vsl 15 128 0 127 0 1 empty empty empty 0 -9 0 10 -262144
-1 -1 12700 1;
#X obj 45 170 osc~ 350;
#X obj 110 171 osc~ 2100.1;
#X text 72 232 X;
#X text 115 230 Y;
#X text 147 233 LUM;
#X text 244 58 https://github.com/jyg/gemscope-/;
#X text 6 23 gemscope~ : a gem-based XY-scope to draw lissajous curves
with brightness modulation;
#X text 198 288 width controls the width of the beam;
#X connect 2 0 0 2;
#X connect 3 0 2 0;
#X connect 4 0 3 0;
#X connect 5 0 0 0;
#X connect 6 0 0 1;
